<svg xmlns="http://www.w3.org/2000/svg" id="icon-placeholder" fill="none"
  stroke="#000" stroke-linecap="round" stroke-linejoin="round"
  stroke-miterlimit="10" stroke-width=".51" viewBox="0 0 32 32">
  <path
    d="m10.68 8.24 13.26-2.76.56 2.76M5.4 19.76 3.33 9.78l2.07-.44M16.95 24.4 6.8 26.5l-.44-2.1m19.61-9.17 1.44 7-1.46.3M5.4 24.4h20.58V8.24m-1.46 0H5.4v14.67" />
  <path
    d="m8.8 20.38 3.15-8.4 2.9 3.64m.66.79 1.44 1.77 2.48-1.87 3.71 5.58H8.44m13.93-10.8a1.87 1.87 0 0 1-1.1 3.35c-.76 0-1.43-.46-1.71-1.13m-.1-1.02a1.85 1.85 0 0 1 2.08-1.54h-.01m7.91-5.25-26.88 21" />
</svg>
